<svg id="Layer_1" data-name="Layer 1" xmlns="http://www.w3.org/2000/svg" viewBox="0 0 1000 1000"><defs><style>.cls-1{fill:#fff;}</style></defs><g id="Logo_small" data-name="Logo small"><path class="cls-1" d="M242.87,634q-40.67,0-75.91-15.19A194.6,194.6,0,0,1,63.65,514.45q-14.92-35.52-14.91-76.19t14.91-75.92a198.15,198.15,0,0,1,41.21-62.09,188.31,188.31,0,0,1,61.28-41.76q35-14.91,75.65-14.91t75.65,14.91A191.6,191.6,0,0,1,379,300.25a195.48,195.48,0,0,1,41.48,62.36q14.91,35.52,14.91,76.19T420.47,515A193.4,193.4,0,0,1,318,618.83,186.63,186.63,0,0,1,242.87,634Zm-1.08-59.65q38.49,0,67.51-17.35a122.63,122.63,0,0,0,45.55-48q16.54-30.63,16.54-70.76,0-29.82-9.49-54.5a127.55,127.55,0,0,0-26.84-42.84A118.86,118.86,0,0,0,294.12,313q-23.6-9.76-52.33-9.76-38,0-67,17.08a121.08,121.08,0,0,0-45.55,47.45q-16.56,30.38-16.54,70.5,0,29.82,9.49,55a125.54,125.54,0,0,0,26.57,43.11,120.34,120.34,0,0,0,40.94,27.93Q213.58,574.38,241.79,574.37ZM416.4,654.63,245.58,483.81l40.13-40.13L456.53,614.5Z"/><path class="cls-1" d="M587.7,628.6,480.28,362.88h47.45l83.89,215.23h-16.7l84.65-215.23h46.69L618.07,628.6Z"/><path class="cls-1" d="M764.22,628.6V362.88h43.65V628.6Zm30-112.74V479.79h67.19q20.11,0,31.32-10.43t11.2-29q0-16.71-11-28.09t-31.13-11.39H794.2v-38h69.47q25.05,0,44,10.06a74.1,74.1,0,0,1,29.42,27.33q10.44,17.28,10.44,39.29,0,23.16-10.44,40.23a70.63,70.63,0,0,1-29.42,26.58q-19,9.48-44,9.49ZM910,628.6,817,513.2l40.62-14.8L965,628.6Z"/><circle class="cls-1" cx="416.07" cy="614.17" r="28.28"/><circle class="cls-1" cx="478.49" cy="676.58" r="28.28"/><circle class="cls-1" cx="540.9" cy="738.99" r="28.28"/><circle class="cls-1" cx="603.31" cy="801.41" r="28.28"/></g></svg>