<svg id="Layer_1" data-name="Layer 1" xmlns="http://www.w3.org/2000/svg" viewBox="0 0 1000 1000"><defs><style>.cls-1{fill:#fff;}</style></defs><g id="Logo_big" data-name="Logo big"><path class="cls-1" d="M137.14,563.24a89.78,89.78,0,0,1-35.84-7.16A93.42,93.42,0,0,1,52.54,435,93.38,93.38,0,0,1,72,405.68,89,89,0,0,1,100.92,386a90.15,90.15,0,0,1,35.71-7,89.65,89.65,0,0,1,64.77,26.76,92.6,92.6,0,0,1-28.8,150.4A88.23,88.23,0,0,1,137.14,563.24Zm-.51-28.16q18.18,0,31.87-8.19A57.88,57.88,0,0,0,190,504.23q7.8-14.44,7.81-33.4a71.28,71.28,0,0,0-4.48-25.73,60.36,60.36,0,0,0-12.68-20.22,56,56,0,0,0-19.32-13.19,64.1,64.1,0,0,0-24.71-4.61q-17.92,0-31.61,8.07a57.11,57.11,0,0,0-21.51,22.4q-7.82,14.34-7.81,33.28a73.29,73.29,0,0,0,4.48,26,59.27,59.27,0,0,0,12.55,20.35,56.59,56.59,0,0,0,19.33,13.19A62.67,62.67,0,0,0,136.63,535.08ZM219.07,573l-80.65-80.64,19-18.94L238,554Z"/><path class="cls-1" d="M311,563.24q-15.63,0-27.78-6.91a49,49,0,0,1-18.94-19.07q-6.79-12.15-6.79-28V437.8h28.16V508a35.54,35.54,0,0,0,2.95,15.23,21.16,21.16,0,0,0,8.7,9.6,26.89,26.89,0,0,0,13.7,3.33q12.28,0,18.81-7.3T336.31,508V437.8h28.16v71.43q0,16.13-6.78,28.29a48.47,48.47,0,0,1-18.82,18.94Q326.84,563.24,311,563.24Z"/><path class="cls-1" d="M450,563.24a66.16,66.16,0,0,1-33.15-8.32A61.79,61.79,0,0,1,393.53,532a67.07,67.07,0,0,1-.13-65.41,62.84,62.84,0,0,1,55-31.36q17.15,0,30.33,7.94a56.53,56.53,0,0,1,20.74,21.76q7.55,13.83,7.55,31.49a53.79,53.79,0,0,1-.38,6.27c-.26,2.14-.64,4.48-1.15,7H404.66v-23h86.27l-10.49,9.22q-.53-11.26-4.35-18.95a27.47,27.47,0,0,0-10.88-11.77q-7.05-4.09-17.28-4.1a36.58,36.58,0,0,0-18.69,4.61A31.47,31.47,0,0,0,417,478.64q-4.35,8.31-4.35,19.84a42.48,42.48,0,0,0,4.61,20.22,32.51,32.51,0,0,0,13.05,13.44,39.09,39.09,0,0,0,19.46,4.74,45.46,45.46,0,0,0,17.53-3.33,36.56,36.56,0,0,0,13.7-9.73L498.87,542a57.59,57.59,0,0,1-21.76,15.87A69.46,69.46,0,0,1,450,563.24Z"/><path class="cls-1" d="M569.78,563.24a71.87,71.87,0,0,1-19.71-2.68,67.14,67.14,0,0,1-17.41-7.68,57,57,0,0,1-13.82-12.16l17.92-17.92a41.69,41.69,0,0,0,14.72,11.13,45.57,45.57,0,0,0,18.81,3.71q9.48,0,14.34-2.81a9,9,0,0,0,4.86-8.19,9.86,9.86,0,0,0-4.6-8.71A44.7,44.7,0,0,0,573,512.68q-7.29-2.17-15.36-4.48a75.07,75.07,0,0,1-15.36-6.27,33.06,33.06,0,0,1-11.9-10.88q-4.61-6.92-4.61-17.92,0-11.78,5.5-20.22a35.78,35.78,0,0,1,15.62-13.06q10.11-4.61,24.19-4.61,14.85,0,26.24,5.25a48.59,48.59,0,0,1,19.07,15.74l-17.92,17.93a35.72,35.72,0,0,0-12.28-10,36.3,36.3,0,0,0-15.88-3.33q-8.44,0-13,2.56a8.1,8.1,0,0,0-4.61,7.43,8.82,8.82,0,0,0,4.61,7.93,47.79,47.79,0,0,0,11.9,4.87q7.3,2.06,15.36,4.48a72.15,72.15,0,0,1,15.36,6.65A35.11,35.11,0,0,1,611.77,506q4.61,7,4.6,18.3,0,17.92-12.54,28.42T569.78,563.24Z"/><path class="cls-1" d="M702.64,560.68,630.2,381.48h32l56.57,145.16H707.51L764.6,381.48h31.48l-73,179.2Z"/><path class="cls-1" d="M821.68,560.68V381.48h29.44v179.2Zm20.23-76V460.33h45.31q13.56,0,21.12-7t7.55-19.58a26.21,26.21,0,0,0-7.42-18.95q-7.43-7.68-21-7.68H841.91v-25.6h46.85q16.89,0,29.69,6.79a49.08,49.08,0,0,1,26.88,44.93q0,15.62-7,27.13a47.55,47.55,0,0,1-19.84,17.92q-12.8,6.4-29.69,6.4Zm78.08,76-62.72-77.82,27.39-10,72.45,87.8Z"/><circle class="cls-1" cx="218.65" cy="553.61" r="13.35"/><circle class="cls-1" cx="248.23" cy="583.19" r="13.35"/><circle class="cls-1" cx="277.81" cy="612.77" r="13.35"/><circle class="cls-1" cx="307.39" cy="642.35" r="13.35"/></g></svg>