<svg id="Layer_1" data-name="Layer 1" xmlns="http://www.w3.org/2000/svg" viewBox="0 0 1000 1000"><defs><style>.cls-1{fill:#ccc;}.cls-2,.cls-3,.cls-4,.cls-5,.cls-6{fill:none;stroke:#000;}.cls-2,.cls-4,.cls-5,.cls-6{stroke-miterlimit:10;}.cls-2{stroke-dasharray:12;}.cls-3{stroke-dasharray:18;}.cls-5{stroke-dasharray:12.05 12.05;}.cls-6{stroke-dasharray:6;}</style></defs><g id="Logo_small" data-name="Logo small"><path class="cls-1" d="M242.87,634q-40.67,0-75.91-15.19A194.6,194.6,0,0,1,63.65,514.45q-14.92-35.52-14.91-76.19t14.91-75.92a198.15,198.15,0,0,1,41.21-62.09,188.31,188.31,0,0,1,61.28-41.76q35-14.91,75.65-14.91t75.65,14.91A191.6,191.6,0,0,1,379,300.25a195.48,195.48,0,0,1,41.48,62.36q14.91,35.52,14.91,76.19T420.47,515A193.4,193.4,0,0,1,318,618.83,186.63,186.63,0,0,1,242.87,634Zm-1.08-59.65q38.49,0,67.51-17.35a122.63,122.63,0,0,0,45.55-48q16.54-30.63,16.54-70.76,0-29.82-9.49-54.5a127.55,127.55,0,0,0-26.84-42.84A118.86,118.86,0,0,0,294.12,313q-23.6-9.76-52.33-9.76-38,0-67,17.08a121.08,121.08,0,0,0-45.55,47.45q-16.56,30.38-16.54,70.5,0,29.82,9.49,55a125.54,125.54,0,0,0,26.57,43.11,120.34,120.34,0,0,0,40.94,27.93Q213.58,574.38,241.79,574.37ZM416.4,654.63,245.58,483.81l40.13-40.13L456.53,614.5Z"/><path class="cls-1" d="M587.7,628.6,480.28,362.88h47.45l83.89,215.23h-16.7l84.65-215.23h46.69L618.07,628.6Z"/><path class="cls-1" d="M764.22,628.6V362.88h43.65V628.6Zm30-112.74V479.79h67.19q20.11,0,31.32-10.43t11.2-29q0-16.71-11-28.09t-31.13-11.39H794.2v-38h69.47q25.05,0,44,10.06a74.1,74.1,0,0,1,29.42,27.33q10.44,17.28,10.44,39.29,0,23.16-10.44,40.23a70.63,70.63,0,0,1-29.42,26.58q-19,9.5-44,9.49ZM910,628.6,817,513.2l40.62-14.8L965,628.6Z"/><circle class="cls-1" cx="416.07" cy="614.17" r="28.28"/><circle class="cls-1" cx="478.49" cy="676.58" r="28.28"/><circle class="cls-1" cx="540.9" cy="738.99" r="28.28"/><circle class="cls-1" cx="603.31" cy="801.41" r="28.28"/></g><g id="Dotted_lines" data-name="Dotted lines"><g id="logo_dotted_lines" data-name="logo dotted lines"><circle class="cls-2" cx="416.07" cy="614.17" r="28.28"/><circle class="cls-2" cx="478.49" cy="676.58" r="28.28"/><circle class="cls-2" cx="540.9" cy="738.99" r="28.28"/><circle class="cls-2" cx="603.31" cy="801.41" r="28.28"/><path class="cls-3" d="M242.87,634q-40.67,0-75.91-15.19A194.6,194.6,0,0,1,63.65,514.45q-14.92-35.52-14.91-76.19t14.91-75.92a198.15,198.15,0,0,1,41.21-62.09,188.31,188.31,0,0,1,61.28-41.76q35-14.91,75.65-14.91t75.65,14.91A191.6,191.6,0,0,1,379,300.25a195.48,195.48,0,0,1,41.48,62.36q14.91,35.52,14.91,76.19T420.47,515A193.4,193.4,0,0,1,318,618.83,186.63,186.63,0,0,1,242.87,634Zm-1.08-59.65q38.49,0,67.51-17.35a122.63,122.63,0,0,0,45.55-48q16.54-30.63,16.54-70.76,0-29.82-9.49-54.5a127.55,127.55,0,0,0-26.84-42.84A118.86,118.86,0,0,0,294.12,313q-23.6-9.76-52.33-9.76-38,0-67,17.08a121.08,121.08,0,0,0-45.55,47.45q-16.56,30.38-16.54,70.5,0,29.82,9.49,55a125.54,125.54,0,0,0,26.57,43.11,120.34,120.34,0,0,0,40.94,27.93Q213.58,574.38,241.79,574.37ZM416.4,654.63,245.58,483.81l40.13-40.13L456.53,614.5Z"/><path class="cls-3" d="M587.7,628.6,480.28,362.88h47.45l83.89,215.23h-16.7l84.65-215.23h46.69L618.07,628.6Z"/><path class="cls-3" d="M764.22,628.6V362.88h43.65V628.6Zm30-112.74V479.79h67.19q20.11,0,31.32-10.43t11.2-29q0-16.71-11-28.09t-31.13-11.39H794.2v-38h69.47q25.05,0,44,10.06a74.1,74.1,0,0,1,29.42,27.33q10.44,17.28,10.44,39.29,0,23.16-10.44,40.23a70.63,70.63,0,0,1-29.42,26.58q-19,9.5-44,9.49ZM910,628.6,817,513.2l40.62-14.8L965,628.6Z"/></g><line class="cls-4" x1="801.91" y1="1000" x2="797.66" y2="995.76"/><line class="cls-5" x1="789.15" y1="987.24" x2="248.21" y2="446.31"/><line class="cls-4" x1="243.95" y1="442.05" x2="239.71" y2="437.8"/><line class="cls-2" x1="239.71" y1="791.16" x2="239.71" y2="155.11"/><line class="cls-2" x1="21.66" y1="437.8" x2="468.05" y2="437.8"/><line class="cls-2" x1="603.31" y1="1000" x2="603.31" y2="155.11"/></g><path class="cls-6" d="M447,645.05a291.43,291.43,0,0,1-206.87,85.78h-.38"/><path d="M344,704.38l.56-6.15,1.42-.63-.62,6.18Zm.34.77-.34-.77.38-.6,5.42-2.39.5,1.13Zm4.52.37-2.22-5,1.24-.55,2.22,5Z"/><path d="M349.69,697.31l-.72-1,4.12-1.81.5,1.13Zm1.48,3-1-.39-1.2-3.64,1.15-.51,1.21,3.81Zm2.91,3a3.74,3.74,0,0,1-1.55.35,3.07,3.07,0,0,1-1.42-.35l.48-1.24a1.8,1.8,0,0,0,.9.28,2.36,2.36,0,0,0,1.05-.22,2.08,2.08,0,0,0,.76-.54,1.66,1.66,0,0,0-.33-2.33,1.35,1.35,0,0,0-.75-.23,1.7,1.7,0,0,0-.79.16,2.79,2.79,0,0,0-.74.44,2.26,2.26,0,0,0-.52.65l-.32-.81a1.7,1.7,0,0,1,.24-.55,2.14,2.14,0,0,1,.44-.47,3.14,3.14,0,0,1,.69-.39,2.85,2.85,0,0,1,1.52-.27,2.53,2.53,0,0,1,1.24.54,3.13,3.13,0,0,1,.84,1.13A2.7,2.7,0,0,1,356,701a2.84,2.84,0,0,1-.62,1.37A3.53,3.53,0,0,1,354.08,703.33Z"/><path d="M357.54,696.48a2,2,0,0,1-1,.18,1.94,1.94,0,0,1-.9-.34,2,2,0,0,1-.61-.78,1.88,1.88,0,0,1-.16-1,1.73,1.73,0,0,1,.35-.89,2,2,0,0,1,1.82-.81,1.78,1.78,0,0,1,.89.35,1.86,1.86,0,0,1,.62.78,2,2,0,0,1,.16,1,1.78,1.78,0,0,1-.35.89A2,2,0,0,1,357.54,696.48Zm-.43-1a.75.75,0,0,0,.43-.46.83.83,0,0,0,0-.62.82.82,0,0,0-.44-.47.79.79,0,0,0-.62,0,.77.77,0,0,0-.43.44.87.87,0,0,0,.05.65.82.82,0,0,0,.44.44A.72.72,0,0,0,357.11,695.53Z"/><path d="M426.08,435.4l2.23-3.14.67.56-1.82,2.58Zm4.34,0-1.74-2.62h-.17l-2.33-3.26h1.14l1.74,2.47h.18l2.3,3.41Zm-1.11-2.82-.67-.56,1.72-2.5h1.08Z"/><g id="x_4xratio_" data-name="x/(4xratio)"><path d="M462.11,766.36l2.23-3.14.67.56-1.82,2.58Zm4.33,0-1.73-2.62h-.17l-2.33-3.26h1.14l1.74,2.47h.18l2.3,3.41Zm-1.11-2.82-.66-.56,1.71-2.5h1.09Z"/><path d="M470.28,766.84l3.36-9.36h1.23l-3.36,9.36Z"/><path d="M479.92,767.79a5.37,5.37,0,0,1-1.09-1.38,7.45,7.45,0,0,1-.72-1.79,8.25,8.25,0,0,1,0-4,7.29,7.29,0,0,1,.72-1.79,5.37,5.37,0,0,1,1.09-1.38l.76.67a4.85,4.85,0,0,0-1.23,1.89,8,8,0,0,0,0,5.24,4.82,4.82,0,0,0,1.23,1.9Z"/><path d="M481.3,763.36l3-5.4h1.56l-3.06,5.4Zm0,.84v-.84l.59-.4h5.93v1.24Zm4,2.16v-5.5h1.35v5.5Z"/><path d="M493.22,762.44l-.06-1.9-1.55,1-.55-1.06,1.75-.64-1.45-1.13.85-.85,1.13,1.45.64-1.75,1.08.55L494,759.7l1.9.06-.19,1.19-1.82-.53.53,1.82Z"/><path d="M507.09,767.79l-.75-.67a4.93,4.93,0,0,0,1.23-1.9,8.2,8.2,0,0,0,0-5.24,5,5,0,0,0-1.23-1.89l.75-.67a5.4,5.4,0,0,1,1.1,1.38,7.29,7.29,0,0,1,.72,1.79,8.25,8.25,0,0,1,0,4,7.45,7.45,0,0,1-.72,1.79A5.4,5.4,0,0,1,507.09,767.79Z"/><path class="cls-4" d="M503.51,763.66a.39.39,0,0,0,.41-.4.4.4,0,0,0-.41-.41.81.81,0,0,0-.8.81,1.2,1.2,0,0,0,1.22,1.23,2,2,0,0,0,2-2,3.19,3.19,0,0,0-3.25-3.26c-5.3,0-5.3,5.29-5.3,5.29"/></g><path class="cls-4" d="M57.29,787.65a.57.57,0,0,0,.57-.58.56.56,0,0,0-.57-.57,1.13,1.13,0,0,0-1.12,1.15,1.67,1.67,0,0,0,1.7,1.71,2.8,2.8,0,0,0,2.86-2.86c0-4.57-4.57-4.57-4.57-4.57-7.43,0-7.43,7.43-7.43,7.43"/><path d="M70.88,784.42v-1.68h7.43v1.68Zm0,3.88v-1.69h7.43v1.69Z"/><path d="M89.22,791.33a5.63,5.63,0,0,1-2.28-.46,5.8,5.8,0,0,1-1.87-1.29,6.07,6.07,0,0,1-1.25-1.92,6,6,0,0,1-.46-2.36A6,6,0,0,1,85.08,781,5.7,5.7,0,0,1,87,779.76a6,6,0,0,1,2.37-.46,6.15,6.15,0,0,1,2.58.54,5.33,5.33,0,0,1,2,1.55l-1.1,1.1a3.53,3.53,0,0,0-1.46-1.24,4.56,4.56,0,0,0-2-.43,4.41,4.41,0,0,0-2.26.57A4,4,0,0,0,85.54,783,4.89,4.89,0,0,0,85,785.3a4.76,4.76,0,0,0,.56,2.34,4.08,4.08,0,0,0,1.5,1.58,4,4,0,0,0,2.14.58,4.64,4.64,0,0,0,2.15-.47,3.25,3.25,0,0,0,1.38-1.39,5.12,5.12,0,0,0,.5-2.25l1,.7H89.12v-1.46h5.73v.24a7.32,7.32,0,0,1-.72,3.41,4.81,4.81,0,0,1-2,2.06A6.07,6.07,0,0,1,89.22,791.33Z"/><path d="M100.32,791.33a4,4,0,0,1-2.1-.56,4.14,4.14,0,0,1-2.06-3.63,4,4,0,0,1,.56-2.1,4.2,4.2,0,0,1,1.5-1.49,4.07,4.07,0,0,1,2.1-.56,4.19,4.19,0,0,1,2.14.55,4.11,4.11,0,0,1,2.06,3.6,4.14,4.14,0,0,1-2.06,3.63A4.1,4.1,0,0,1,100.32,791.33Zm0-1.46a2.54,2.54,0,0,0,2.3-1.33,2.92,2.92,0,0,0,.33-1.4,2.78,2.78,0,0,0-.34-1.39,2.57,2.57,0,0,0-.93-1,2.83,2.83,0,0,0-2.69,0,2.47,2.47,0,0,0-.92,1,2.78,2.78,0,0,0-.34,1.39,2.82,2.82,0,0,0,.34,1.4,2.46,2.46,0,0,0,.92,1A2.53,2.53,0,0,0,100.32,789.87Z"/><path d="M106.2,791.16v-12h1.52v12Z"/><path d="M113.31,791.33a3.61,3.61,0,0,1-2-.55,3.92,3.92,0,0,1-1.39-1.49,4.66,4.66,0,0,1,0-4.24,4,4,0,0,1,1.39-1.5,3.62,3.62,0,0,1,2-.56,3.54,3.54,0,0,1,1.64.38,3.11,3.11,0,0,1,1.17,1,3,3,0,0,1,.5,1.54v2.41a3.18,3.18,0,0,1-.49,1.53A3,3,0,0,1,115,791,3.52,3.52,0,0,1,113.31,791.33Zm.26-1.43a2.48,2.48,0,0,0,1.33-.36,2.36,2.36,0,0,0,.89-1,3.29,3.29,0,0,0,0-2.83,2.39,2.39,0,0,0-.89-1,2.48,2.48,0,0,0-1.33-.36,2.51,2.51,0,0,0-1.33.35,2.41,2.41,0,0,0-.91,1,3.07,3.07,0,0,0-.33,1.42,3.11,3.11,0,0,0,.33,1.43,2.44,2.44,0,0,0,.91,1A2.56,2.56,0,0,0,113.57,789.9Zm4,1.26H116V789l.28-2-.28-1.94v-6h1.53Z"/><path d="M123.46,791.33a4.22,4.22,0,0,1-2.17-.55,4.07,4.07,0,0,1-1.51-1.49,4.13,4.13,0,0,1-.55-2.14,4.21,4.21,0,0,1,.54-2.12,4.09,4.09,0,0,1,3.58-2,3.77,3.77,0,0,1,2,.51,3.48,3.48,0,0,1,1.34,1.4,4.2,4.2,0,0,1,.48,2c0,.12,0,.24,0,.37a2.72,2.72,0,0,1-.07.43h-6.75v-1.27h5.94l-.55.49a3,3,0,0,0-.29-1.37,2.09,2.09,0,0,0-.81-.88,2.38,2.38,0,0,0-1.26-.31,2.62,2.62,0,0,0-1.36.34,2.23,2.23,0,0,0-.91.94,2.93,2.93,0,0,0-.32,1.43,3.17,3.17,0,0,0,.33,1.48,2.42,2.42,0,0,0,1,1,3,3,0,0,0,1.44.35,3.1,3.1,0,0,0,1.23-.24,2.49,2.49,0,0,0,1-.7l1,1a3.94,3.94,0,0,1-1.42,1A4.53,4.53,0,0,1,123.46,791.33Z"/><path d="M128.78,791.16v-8h1.51v8Zm5.64,0V786.5a2.09,2.09,0,0,0-.56-1.5,1.94,1.94,0,0,0-1.48-.59,2.16,2.16,0,0,0-1.08.27,2,2,0,0,0-.74.74,2.11,2.11,0,0,0-.27,1.08l-.62-.36a3.25,3.25,0,0,1,.41-1.62,2.94,2.94,0,0,1,1.12-1.12,3.33,3.33,0,0,1,1.64-.41,2.86,2.86,0,0,1,1.61.46,3.36,3.36,0,0,1,1.1,1.18,3.19,3.19,0,0,1,.41,1.56v5Z"/><path d="M141.5,791.16v-8H143v8Zm1.51-4.55-.57-.27a3.89,3.89,0,0,1,.71-2.44,2.42,2.42,0,0,1,2-.91,2.72,2.72,0,0,1,1.09.21,2.56,2.56,0,0,1,.91.7l-1,1a1.58,1.58,0,0,0-.56-.39,1.92,1.92,0,0,0-.71-.12,1.87,1.87,0,0,0-1.38.54A2.25,2.25,0,0,0,143,786.61Z"/><path d="M151.4,791.33a3.66,3.66,0,0,1-2-.55,3.86,3.86,0,0,1-1.4-1.49,4.66,4.66,0,0,1,0-4.24,4,4,0,0,1,1.4-1.5,3.66,3.66,0,0,1,2-.56,3.47,3.47,0,0,1,1.63.38,3,3,0,0,1,1.15,1,2.93,2.93,0,0,1,.49,1.54v2.41a3.07,3.07,0,0,1-.48,1.53A2.91,2.91,0,0,1,153,791,3.54,3.54,0,0,1,151.4,791.33Zm.26-1.43a2.34,2.34,0,0,0,1.82-.77,2.81,2.81,0,0,0,.69-2,3.11,3.11,0,0,0-.32-1.43,2.39,2.39,0,0,0-.89-1,2.67,2.67,0,0,0-2.66,0,2.43,2.43,0,0,0-.91,1,2.9,2.9,0,0,0-.33,1.4,3,3,0,0,0,.33,1.43,2.43,2.43,0,0,0,.92,1A2.52,2.52,0,0,0,151.66,789.9Zm2.41,1.26V789l.28-2-.28-1.94v-2h1.53v8Z"/><path d="M157,784.54v-1.38h5.46v1.38Zm2,6.62V779.81h1.52v11.35Z"/><path d="M164.75,781.56a.9.9,0,0,1-.69-.28,1,1,0,0,1-.27-.7.93.93,0,0,1,.27-.68,1,1,0,0,1,1.38,0,.93.93,0,0,1,.27.68,1,1,0,0,1-.27.7A.9.9,0,0,1,164.75,781.56Zm-.78,9.6v-8h1.53v8Z"/><path d="M171.38,791.33a4,4,0,0,1-2.1-.56,4.14,4.14,0,0,1-2.06-3.63,4,4,0,0,1,.56-2.1,4.2,4.2,0,0,1,1.5-1.49,4.07,4.07,0,0,1,2.1-.56,4.12,4.12,0,0,1,2.13.55A4,4,0,0,1,175,785a4.08,4.08,0,0,1,.56,2.11,4.18,4.18,0,0,1-.56,2.13,4.1,4.1,0,0,1-1.51,1.5A4,4,0,0,1,171.38,791.33Zm0-1.46a2.57,2.57,0,0,0,1.37-.36,2.46,2.46,0,0,0,.92-1,2.82,2.82,0,0,0,.34-1.4,2.78,2.78,0,0,0-.34-1.39,2.57,2.57,0,0,0-.93-1,2.83,2.83,0,0,0-2.69,0,2.47,2.47,0,0,0-.92,1,2.78,2.78,0,0,0-.34,1.39,2.82,2.82,0,0,0,.34,1.4,2.46,2.46,0,0,0,.92,1A2.53,2.53,0,0,0,171.38,789.87Z"/></svg>